<svg width="12" height="25" viewBox="0 0 12 25" fill="none" xmlns="http://www.w3.org/2000/svg">
<path d="M10.7801 25.0043C10.6431 25.0051 10.5072 24.9788 10.3802 24.9269C10.2533 24.8751 10.1379 24.7987 10.0406 24.7022L1.53014 16.1918C1.04511 15.708 0.660289 15.1332 0.397721 14.5004C0.135154 13.8677 0 13.1893 0 12.5043C0 11.8192 0.135154 11.1408 0.397721 10.5081C0.660289 9.87532 1.04511 9.30057 1.53014 8.81676L10.0406 0.306345C10.1377 0.209222 10.253 0.132179 10.3799 0.0796166C10.5068 0.0270537 10.6428 1.02336e-09 10.7801 0C10.9175 -1.02336e-09 11.0535 0.0270537 11.1804 0.0796166C11.3073 0.132179 11.4226 0.209222 11.5197 0.306345C11.6168 0.403469 11.6939 0.518771 11.7465 0.645669C11.799 0.772567 11.8261 0.908575 11.8261 1.04593C11.8261 1.18328 11.799 1.31929 11.7465 1.44619C11.6939 1.57309 11.6168 1.68839 11.5197 1.78551L3.00931 10.2959C2.4241 10.8819 2.09539 11.6761 2.09539 12.5043C2.09539 13.3324 2.4241 14.1267 3.00931 14.7126L11.5197 23.223C11.6174 23.3198 11.6949 23.4351 11.7477 23.562C11.8006 23.6889 11.8278 23.8251 11.8278 23.9626C11.8278 24.1001 11.8006 24.2363 11.7477 24.3632C11.6949 24.4901 11.6174 24.6053 11.5197 24.7022C11.4224 24.7987 11.307 24.8751 11.18 24.9269C11.0531 24.9788 10.9172 25.0051 10.7801 25.0043Z" fill="white"/>
</svg>
